<svg class="animated" id="freepik_stories-plastic-surgery" xmlns="http://www.w3.org/2000/svg" viewBox="0 0 500 368.76" version="1.1" xmlns:xlink="http://www.w3.org/1999/xlink" xmlns:svgjs="http://svgjs.com/svgjs"><style>svg#freepik_stories-plastic-surgery:not(.animated) .animable {opacity: 0;}svg#freepik_stories-plastic-surgery.animated #freepik--background-simple--inject-14 {animation: 1.5s Infinite  linear floating;animation-delay: 0s;}            @keyframes floating {                0% {                    opacity: 1;                    transform: translateY(0px);                }                50% {                    transform: translateY(-10px);                }                100% {                    opacity: 1;                    transform: translateY(0px);                }            }        .animator-hidden { display: none; }</style><g id="freepik--background-simple--inject-14" class="animable" style="transform-origin: 251.333px 224.838px;"><g id="el9llydsym0xg"><path d="M280.37,175.62c16.75,7.14,53.25-12.19,70.93-16.59,44.58-11.1,96.44,7.63,92,70-6,85.25-131.87,178.94-263.45,134.09-66.46-22.66-120.88-86-120.75-162C59.37,63.1,190.26,58.42,231.39,93,269.91,125.46,258.28,166.21,280.37,175.62Z" style="fill: rgb(22, 160, 133); transform-origin: 251.333px 224.838px;" class="animable"></path></g><g id="elksmugdyrck"><path d="M280.37,175.62c16.75,7.14,53.25-12.19,70.93-16.59,44.58-11.1,96.44,7.63,92,70-6,85.25-131.87,178.94-263.45,134.09-66.46-22.66-120.88-86-120.75-162C59.37,63.1,190.26,58.42,231.39,93,269.91,125.46,258.28,166.21,280.37,175.62Z" style="fill: rgb(255, 255, 255); opacity: 0.9; transform-origin: 251.333px 224.838px;" class="animable"></path></g></g><g id="freepik--Shadow--inject-14" class="animable animator-hidden" style="transform-origin: 245.18px 357.44px;"><ellipse id="freepik--path--inject-14" cx="245.18" cy="357.44" rx="193.89" ry="11.32" style="fill: rgb(245, 245, 245); transform-origin: 245.18px 357.44px;" class="animable"></ellipse></g><g id="freepik--Screen--inject-14" class="animable" style="transform-origin: 248.77px 169.82px;"><rect x="180.93" y="58.51" width="135.69" height="164.67" rx="8.54" style="fill: rgb(22, 160, 133); transform-origin: 248.775px 140.845px;" id="ely9wq9nnkvgc" class="animable"></rect><g id="elykp3xco36go"><rect x="180.93" y="58.51" width="135.69" height="164.67" rx="8.54" style="fill: rgb(255, 255, 255); opacity: 0.4; transform-origin: 248.775px 140.845px;" class="animable"></rect></g><g id="elol1q8c66pfe"><path d="M244.75,181.93c-2.12,6.82-4.54,13.42-7.2,20.07-1.33,3.33-2.74,6.64-4.26,10-.77,1.67-1.54,3.34-2.42,5-.42.83-.89,1.7-1.37,2.57l-.72,1.3-.84,1.39c-.59,1-1.06,1.65-1.57,2.43l-1.52,2.22-3.07,4.4q-3.09,4.38-6.25,8.69c-4.22,5.75-8.53,11.43-13.09,17a4.18,4.18,0,0,1-5.74.86,3.83,3.83,0,0,1-1-4.72h0c3.05-6.4,6.33-12.67,9.67-18.89l10-18.32.46-.93.46-1c.31-.71.62-1.42.92-2.19.61-1.49,1.2-3.06,1.81-4.61,1.17-3.15,2.31-6.36,3.46-9.58,2.25-6.44,4.48-13,6.78-19.44l0-.06a8.87,8.87,0,0,1,10.43-5.71A7.43,7.43,0,0,1,244.75,181.93Z" style="fill: rgb(255, 139, 123); transform-origin: 220.207px 215.402px;" class="animable"></path></g><g id="elua3yydgtf"><path d="M197.78,250.9,189.59,257l9,6.75s6.82-6.38,4.3-10.26Z" style="fill: rgb(255, 139, 123); transform-origin: 196.519px 257.325px;" class="animable"></path></g><g id="elc0gwzl95jg"><path d="M187.51,267.13l3.61,1.8a3.59,3.59,0,0,0,4.35-1.13l3.15-4-9-6.75-3.25,5.52A3.2,3.2,0,0,0,187.51,267.13Z" style="fill: rgb(255, 139, 123); transform-origin: 192.233px 263.148px;" class="animable"></path></g><g id="el69936zixdit"><path d="M236.32,189.55l-4.28-3-3.24-2.9a61.18,61.18,0,0,0-1.77,6.72c-1.16,10.26.91,29-5.25,40.95l3.07-4.4,1.52-2.22c.51-.78,1-1.44,1.57-2.43l.84-1.39.72-1.3c.48-.87.95-1.74,1.37-2.57.88-1.7,1.65-3.37,2.42-5,1.52-3.33,2.93-6.64,4.26-10q1.13-2.82,2.19-5.64Z" style="opacity: 0.2; transform-origin: 230.76px 207.485px;" class="animable"></path></g><g id="el0loqljxox8ba"><path d="M262.3,278.13a61.85,61.85,0,0,0-.91-15l-35.06.4s-1.18,5.74-2.78,14.58Z" style="fill: rgb(38, 50, 56); transform-origin: 242.983px 270.63px;" class="animable"></path></g><g id="eljlaa2adkwos"><path d="M286.59,278.13a74.51,74.51,0,0,0-3.22-15.53l-36.56.95s-.09,5.74,0,14.58Z" style="fill: rgb(38, 50, 56); transform-origin: 266.68px 270.365px;" class="animable"></path></g><g id="elwevxjy98ci"><path d="M242,266.27c-7.95-.25-14.28-1.06-15.74-2.49-3.26-7.45-5.29-26.87,3.34-45.17.09-10.51-2-22.15-2.16-33.41a15.38,15.38,0,0,1,12.16-15,115.63,115.63,0,0,1,32.65-1.69,12.4,12.4,0,0,1,11.54,10.63c1.41,9.64.68,25.88-.25,49.68-.4,10-.31,21.46-.28,34-5.13,2.07-20.22,3.28-32.22,3.47Z" style="fill: rgb(255, 139, 123); transform-origin: 254.018px 217.165px;" class="animable"></path></g><g id="elsowwys2g8"><path d="M259.48,151c.49,7.21,1.46,15.56,7,19.65-2.64,5-8.55,9.44-16.71,9.8-9,.4-7.05-5.75-5.28-9,4.11-3.67,2.65-7.76,1.94-10.67Z" style="fill: rgb(255, 139, 123); transform-origin: 254.734px 165.734px;" class="animable"></path></g><g id="elsnlmhv9pgro"><path d="M256.7,154.48c0-.46-.06-.91-.1-1.36l-10.16,7.61c.42,1.74,1.11,3.91.72,6.16C252.11,164.16,256.89,158.85,256.7,154.48Z" style="opacity: 0.2; transform-origin: 251.573px 160.005px;" class="animable"></path></g><g id="eli7egivolt0e"><path d="M259.85,140.49c-1.22,9.53-1.44,15.17-6.6,19.72-7.76,6.84-19.29,1.58-20.95-8.14-1.49-8.75.74-22.85,10.36-26A13.23,13.23,0,0,1,259.85,140.49Z" style="fill: rgb(255, 139, 123); transform-origin: 245.928px 144.367px;" class="animable"></path></g><g id="elfw6u16hnk1b"><path d="M247,141.74a5.23,5.23,0,0,1,4-.3A10.51,10.51,0,0,1,247,141.74Z" style="opacity: 0.2; transform-origin: 249px 141.494px;" class="animable"></path></g><g id="elcwvuvazxe66"><path d="M247.14,142.68a4.32,4.32,0,0,1,3.57.64A8.43,8.43,0,0,1,247.14,142.68Z" style="opacity: 0.2; transform-origin: 248.925px 142.933px;" class="animable"></path></g><g id="el1pupfxn2u5o"><path d="M244.59,142.41c-.05.78-.5,1.38-1,1.34s-.88-.7-.83-1.48.5-1.38,1-1.34S244.64,141.63,244.59,142.41Z" style="fill: rgb(38, 50, 56); transform-origin: 243.675px 142.34px;" class="animable"></path></g><g id="el97pohq17jyh"><path d="M234.86,142c-.06.77-.51,1.38-1,1.34s-.88-.7-.83-1.48.51-1.38,1-1.34S234.91,141.21,234.86,142Z" style="fill: rgb(38, 50, 56); transform-origin: 233.945px 141.93px;" class="animable"></path></g><g id="eliahop4426c"><path d="M237.68,143s-2.33,4.22-4.54,6.12c1.21,1.46,3.61,1.19,3.61,1.19Z" style="fill: rgb(255, 86, 82); transform-origin: 235.41px 146.665px;" class="animable"></path></g><g id="eldjtyltnq5rk"><path d="M245.66,137.64a.43.43,0,0,0,.19-.13.46.46,0,0,0-.06-.65,4.62,4.62,0,0,0-4.08-1,.45.45,0,0,0-.3.57.46.46,0,0,0,.57.31h0a3.68,3.68,0,0,1,3.23.82A.44.44,0,0,0,245.66,137.64Z" style="fill: rgb(38, 50, 56); transform-origin: 243.673px 136.703px;" class="animable"></path></g><g id="eljsuyw75rl9k"><path d="M231.9,138a.46.46,0,0,0,.41-.13,3.62,3.62,0,0,1,3.09-1.16.46.46,0,0,0,.54-.36.47.47,0,0,0-.37-.54,4.53,4.53,0,0,0-3.92,1.42.46.46,0,0,0,0,.65A.55.55,0,0,0,231.9,138Z" style="fill: rgb(38, 50, 56); transform-origin: 233.731px 136.889px;" class="animable"></path></g><g id="elk7s8wfsjt7l"><path d="M239.53,153.84a6.09,6.09,0,0,1-.85.17.17.17,0,0,1-.19-.14h0a.19.19,0,0,1,.16-.19,4.64,4.64,0,0,0,3.52-2.27.17.17,0,0,1,.23-.08.18.18,0,0,1,.08.23A4.8,4.8,0,0,1,239.53,153.84Z" style="fill: rgb(38, 50, 56); transform-origin: 240.492px 152.662px;" class="animable"></path></g><g id="elnrkj570733"><path d="M274.05,177.24l-.61,6.91.61,4.34s9.59,24.19,9.4,43.82v0q0-1.78.12-3.51c.69-17.68,1.27-31.18.95-40.91L282.16,184Z" style="opacity: 0.2; transform-origin: 279.025px 204.775px;" class="animable"></path></g><g id="elr7xss9ml76"><path d="M284.58,173.15c1.1,1.67,2,3.17,3,4.78s1.87,3.19,2.75,4.81c1.79,3.23,3.45,6.55,5,9.94a100,100,0,0,1,7.49,21.93,54.67,54.67,0,0,1,.8,6.36l.06,1.71c0,.6,0,1,0,1.55,0,1-.05,2-.12,3-.27,3.9-.63,7.69-1.14,11.47a217.87,217.87,0,0,1-4.11,22.48,4.49,4.49,0,0,1-4.92,3.38,3.63,3.63,0,0,1-3.1-3.43v0c-.39-7.34-.48-14.71-.66-22-.11-3.63-.16-7.25-.37-10.73,0-.88-.08-1.74-.15-2.58,0-.39-.05-.89-.09-1.21l-.11-1a42.5,42.5,0,0,0-.92-4.42,72.14,72.14,0,0,0-3.18-9.23c-1.27-3.09-2.69-6.17-4.22-9.22s-3.14-6.08-4.8-9.09l-2.54-4.47c-.85-1.46-1.75-3-2.57-4.34l-.05-.1c-2.25-3.66-.92-8.71,3-11.28S282.28,169.66,284.58,173.15Z" style="fill: rgb(255, 139, 123); transform-origin: 286.608px 217.267px;" class="animable"></path></g><g id="elkmpe88tm57"><path d="M298.13,261.26l.24,9.74L287,269s.86-8.94,5.68-9.66Z" style="fill: rgb(255, 139, 123); transform-origin: 292.685px 265.17px;" class="animable"></path></g><g id="els4fnmcyvjvj"><path d="M291.38,279l-3.82-1.39a3.1,3.1,0,0,1-1.88-3.8L287,269l11.4,2-2.45,5.86A3.68,3.68,0,0,1,291.38,279Z" style="fill: rgb(255, 139, 123); transform-origin: 291.974px 274.092px;" class="animable"></path></g><g id="elw0kkaeh05cr"><path d="M256.41,147.4s-1.82-3.25-1.36-9.73-5.54-5.5-7.11-9.18c0,0-11.2-.31-11.25-7.72-.07-9.6,15.6,3.64,20.92,4.67s13.95,9.88,3.75,22.71Z" style="fill: rgb(38, 50, 56); transform-origin: 251.397px 132.724px;" class="animable"></path></g><g id="elkffzym18hsq"><path d="M265.51,140.58a18.31,18.31,0,0,1-10.5-2.19c-.27,6,1.4,9,1.4,9l4.95.75A22.49,22.49,0,0,0,265.51,140.58Z" style="fill: rgb(255, 255, 255); opacity: 0.3; transform-origin: 260.245px 143.265px;" class="animable"></path></g><g id="elcep2dr721gd"><path d="M262.46,150.43a9,9,0,0,1-5.69,4c-3.14.65-4.52-2.2-3.5-5,.92-2.56,3.66-6,6.73-5.37S264,147.92,262.46,150.43Z" style="fill: rgb(255, 139, 123); transform-origin: 258.064px 149.254px;" class="animable"></path></g><g id="elc85137tzk8"><path d="M233.94,145.32l-.05-.44a1.84,1.84,0,0,0,.74-.27l.24.38A2.26,2.26,0,0,1,233.94,145.32Zm-1-.08a2.63,2.63,0,0,1-.88-.42l.26-.36a2.67,2.67,0,0,0,.74.35Zm2.63-.9-.35-.29a4.31,4.31,0,0,0,.41-.61l.39.22A5,5,0,0,1,235.59,144.34Z" style="fill: rgb(38, 50, 56); transform-origin: 234.04px 144.38px;" class="animable"></path></g><g id="elxgs88t4rojc"><path d="M242.32,145.57a5.79,5.79,0,0,1-.72,0l.05-.45a6.26,6.26,0,0,0,.87,0v.45Zm1.14-.09-.07-.45a8.64,8.64,0,0,0,.85-.19l.12.43A7.32,7.32,0,0,1,243.46,145.48Zm-2.77-.12a5.78,5.78,0,0,1-.89-.29l.18-.42a5.66,5.66,0,0,0,.82.28Zm4.55-.39-.17-.42.27-.11.18.41Zm-6.27-.33a4.06,4.06,0,0,1-.76-.56l.31-.32a4.21,4.21,0,0,0,.69.5Z" style="fill: rgb(38, 50, 56); transform-origin: 241.865px 144.671px;" class="animable"></path></g><g id="el4wq2n5gb06d"><path d="M243.21,134.4c.24,0,.49,0,.72,0l-.05.45a6.13,6.13,0,0,0-.86,0l0-.45Zm-1.13.1.07.44a8.64,8.64,0,0,0-.85.19l-.13-.43A7.41,7.41,0,0,1,242.08,134.5Zm2.77.11a7,7,0,0,1,.88.3l-.17.41a8.09,8.09,0,0,0-.83-.28Zm-4.55.39.17.42-.27.11-.19-.41Zm6.26.33a5.11,5.11,0,0,1,.77.56l-.32.33a3.45,3.45,0,0,0-.68-.51Z" style="fill: rgb(38, 50, 56); transform-origin: 243.67px 135.31px;" class="animable"></path></g><g id="el17lpowocb0d"><path d="M234.34,133.7a7,7,0,0,1,.88.3l-.18.42a4.66,4.66,0,0,0-.82-.28Zm1.71.72a5.36,5.36,0,0,1,.77.57l-.32.32a4.37,4.37,0,0,0-.68-.5Z" style="fill: rgb(38, 50, 56); transform-origin: 235.52px 134.505px;" class="animable"></path></g><g id="eljzlfzce7c0t"><path d="M241.79,157.93v-.13a8.88,8.88,0,0,1,.08-1.14l.6.08a9,9,0,0,0-.07,1.06v.1Zm.9-2.35-.59-.15a8.87,8.87,0,0,1,.39-1.2l.56.23A8.65,8.65,0,0,0,242.69,155.58Zm.89-2.16-.52-.32a6.61,6.61,0,0,1,.78-1l.44.41A7.18,7.18,0,0,0,243.58,153.42Zm1.57-1.67-.34-.5a6,6,0,0,1,1.12-.6l.23.56A5.73,5.73,0,0,0,245.15,151.75Zm2.12-.89-.13-.59a8.36,8.36,0,0,1,1.25-.18l0,.61A8.53,8.53,0,0,0,247.27,150.86Zm2.62-.15h-.28l0-.61.28,0Z" style="fill: rgb(38, 50, 56); transform-origin: 245.84px 154.01px;" class="animable"></path></g><g id="eldb7jfxxubhj"><path d="M232.44,151.6l.09,0c.13,0,.39.09.74.2l-.13.39a6.75,6.75,0,0,0-.69-.19h-.08Zm1.43.91.18-.37a5.86,5.86,0,0,1,.74.41l-.23.35A4.58,4.58,0,0,0,233.87,152.51Zm1.31.87.28-.3a4.28,4.28,0,0,1,.56.65l-.33.24A4.69,4.69,0,0,0,235.18,153.38Zm.89,1.26.38-.16a4.58,4.58,0,0,1,.25.82l-.4.08A3.74,3.74,0,0,0,236.07,154.64Zm.31,1.52h.41a6.24,6.24,0,0,1,0,.85l-.41-.05A5.41,5.41,0,0,0,236.38,156.16Zm-.25,1.75.05-.18.4.1-.05.18Z" style="fill: rgb(38, 50, 56); transform-origin: 234.587px 154.805px;" class="animable"></path></g><g id="elqva57kqdoc"><path d="M237.69,141.42l-.44-.06.13-.89.44.06Zm.27-1.78-.45-.06.14-.89.44.06Zm.27-1.78-.45-.06.14-.89.44.06Z" style="fill: rgb(38, 50, 56); transform-origin: 237.805px 139.165px;" class="animable"></path></g><g id="el7llgda01ppv"><path d="M268.87,257.94q-.67-.6-1.35-1.17l.59-.69,1.36,1.19ZM226.43,257l-.79-.44s.35-.63,1-1.56l.73.53A15.69,15.69,0,0,0,226.43,257Zm40.41-.82c-.47-.39-.93-.76-1.39-1.12l.55-.71q.71.55,1.41,1.14Zm-38.92-1.36-.71-.55c.38-.48.77-.95,1.18-1.41l.67.61C228.67,253.92,228.28,254.37,227.92,254.83Zm36.82-.31c-.48-.37-1-.73-1.43-1.07l.52-.73c.48.35,1,.71,1.46,1.09Zm-2.16-1.58c-.5-.35-1-.68-1.48-1l.49-.75c.49.32,1,.66,1.5,1Zm-32.91-.11-.65-.63c.42-.43.87-.86,1.32-1.27l.6.68C230.51,252,230.08,252.41,229.67,252.83Zm30.68-1.37c-.52-.32-1-.62-1.53-.91l.44-.78q.78.43,1.56.93ZM231.61,251l-.57-.69c.47-.39,1-.77,1.46-1.12l.52.74C232.54,250.29,232.07,250.66,231.61,251Zm26.43-.92c-.54-.29-1.06-.56-1.58-.81l.39-.81c.53.26,1.07.54,1.62.83Zm-24.29-.64-.49-.76c.51-.33,1.05-.65,1.58-.93l.43.79C234.75,248.85,234.24,249.15,233.75,249.47Zm21.9-.56c-.55-.25-1.09-.48-1.63-.7l.34-.83c.55.22,1.1.46,1.67.72Zm-19.6-.73-.39-.82c.56-.26,1.13-.5,1.7-.72l.31.85A17.49,17.49,0,0,0,236.05,248.18Zm17.14-.28q-.84-.32-1.68-.57l.26-.86c.57.17,1.15.37,1.74.58Zm-14.69-.7-.28-.86c.58-.19,1.18-.35,1.78-.49l.2.88C239.62,246.86,239.06,247,238.5,247.2Zm12.16-.11c-.57-.15-1.15-.29-1.72-.4l.17-.88c.59.11,1.19.25,1.79.41Zm-9.6-.53-.16-.89c.6-.1,1.21-.18,1.82-.24l.08.9C242.21,246.38,241.63,246.46,241.06,246.56Zm7,0c-.59-.09-1.18-.16-1.75-.21l.07-.89c.6,0,1.21.12,1.82.22Zm-4.39-.26,0-.9q.9,0,1.83,0l0,.9C244.84,246.25,244.25,246.25,243.68,246.27Z" style="fill: rgb(38, 50, 56); transform-origin: 247.555px 251.655px;" class="animable"></path></g><g id="elrbaors3mkrm"><path d="M273.15,256.15a15.73,15.73,0,0,1-1.32-1.33l.67-.6a15.34,15.34,0,0,0,1.23,1.24Zm-1.91-2q-.58-.72-1.11-1.47l.74-.51c.33.48.69.95,1.06,1.4Zm-1.62-2.24c-.32-.52-.63-1-.92-1.59l.8-.42c.27.52.57,1,.88,1.53Zm-1.32-2.41c-.27-.56-.51-1.13-.72-1.7l.85-.31c.2.54.43,1.09.68,1.62Zm-1-2.57c-.18-.58-.34-1.18-.48-1.77l.88-.2c.13.57.28,1.14.46,1.7Zm-.66-2.68c-.11-.6-.19-1.21-.24-1.82l.9-.08a17.47,17.47,0,0,0,.23,1.75Zm-.29-2.74c0-.26,0-.53,0-.81s0-.68,0-1l.9,0c0,.33,0,.66,0,1s0,.52,0,.78Zm1-2.67-.9-.08c.06-.61.14-1.22.25-1.82l.88.15C267.43,237.65,267.35,238.24,267.3,238.82Zm.4-2.61-.88-.19c.13-.59.29-1.19.46-1.78l.87.26Q267.9,235.36,267.7,236.21Zm.72-2.55-.86-.29c.2-.57.41-1.15.65-1.71l.83.34C268.81,232.55,268.6,233.11,268.42,233.66Zm1-2.47-.82-.37c.25-.54.51-1.09.81-1.64l.79.42Q269.75,230.4,269.39,231.19Zm1.2-2.37-.78-.44c.29-.52.6-1,.93-1.57l.76.48C271.18,227.8,270.88,228.31,270.59,228.82Z" style="fill: rgb(38, 50, 56); transform-origin: 270.04px 241.49px;" class="animable"></path></g><g id="el9rzn1w7nego"><path d="M258.91,227.14l-1.1-.07.09-.9c.34,0,.69.06,1.05.07Zm-2-.17c-.62-.09-1.23-.2-1.81-.34l.21-.88c.55.13,1.13.24,1.72.32Zm-2.7-.58a17,17,0,0,1-1.74-.65l.37-.82a13.07,13.07,0,0,0,1.63.6Zm-2.58-1.06a11.73,11.73,0,0,1-1.57-1l.55-.71a10.24,10.24,0,0,0,1.45.93Zm-2.29-1.62a10.34,10.34,0,0,1-1.27-1.38l.72-.54a9.79,9.79,0,0,0,1.16,1.26Zm-1.8-2.16a7,7,0,0,1-.82-1.75l.87-.23a6,6,0,0,0,.71,1.51Z" style="fill: rgb(38, 50, 56); transform-origin: 252.835px 223.355px;" class="animable"></path></g><polygon points="257.08 173.17 258.66 171.71 257.2 170.12 258.49 170.17 259.96 171.76 258.37 173.22 257.08 173.17" style="fill: rgb(38, 50, 56); transform-origin: 258.52px 171.67px;" id="elxq80y1npxwb" class="animable"></polygon><g id="elwluei350p9"><path d="M230.41,227.09l-.09-.9a11.54,11.54,0,0,0,1.45-.24l.19.88A15.18,15.18,0,0,1,230.41,227.09Zm2.45-.49-.26-.86a12.06,12.06,0,0,0,1.62-.62l.38.81A12.06,12.06,0,0,1,232.86,226.6Zm2.57-1.11-.45-.78a10.42,10.42,0,0,0,1.4-1l.58.68A10.35,10.35,0,0,1,235.43,225.49Zm2.22-1.72-.64-.64a10.05,10.05,0,0,0,1.12-1.31l.73.52A11,11,0,0,1,237.65,223.77Zm1.72-2.22-.78-.46a8,8,0,0,0,.72-1.53l.87.26A8.75,8.75,0,0,1,239.37,221.55Z" style="fill: rgb(38, 50, 56); transform-origin: 235.25px 223.325px;" class="animable"></path></g><polygon points="232.01 169.99 230.63 171.65 232.28 173.03 230.99 173.14 229.34 171.76 230.72 170.1 232.01 169.99" style="fill: rgb(38, 50, 56); transform-origin: 230.81px 171.565px;" id="eltokdivmv5rg" class="animable"></polygon><g id="eloiizjaw8znk"><path d="M275.17,243.77h-.36l0-.9a6.59,6.59,0,0,0,1.68-.13l.18.88A7.06,7.06,0,0,1,275.17,243.77Zm-1.3-.1a10.74,10.74,0,0,1-1.82-.45l.28-.85a10.14,10.14,0,0,0,1.67.41Zm3.77-.33-.31-.84a4.36,4.36,0,0,0,1.38-.8l.64.63A5.1,5.1,0,0,1,277.64,243.34Zm-6.46-.45-.33-.14.36-.82.31.13Z" style="fill: rgb(38, 50, 56); transform-origin: 275.1px 242.735px;" class="animable"></path></g><polygon points="273.31 186.78 271.27 187.5 271.99 189.53 270.82 188.97 270.1 186.94 272.14 186.22 273.31 186.78" style="fill: rgb(38, 50, 56); transform-origin: 271.705px 187.875px;" id="elc0vzli6ycq5" class="animable"></polygon><g id="eluw21r0oy59"><path d="M233.16,260.41l-.45-.78a9.62,9.62,0,0,0,1.35-1l.61.67A10.26,10.26,0,0,1,233.16,260.41Zm2.18-1.81-.66-.62a9.83,9.83,0,0,0,1.09-1.34l.74.51A11.43,11.43,0,0,1,235.34,258.6Zm1.67-2.25-.78-.44a8.81,8.81,0,0,0,.43-.87l.83.37C237.34,255.74,237.18,256.05,237,256.35Z" style="fill: rgb(38, 50, 56); transform-origin: 235.1px 257.725px;" class="animable"></path></g><polygon points="237.8 202.5 236.96 200.51 234.97 201.36 235.45 200.16 237.44 199.31 238.29 201.29 237.8 202.5" style="fill: rgb(38, 50, 56); transform-origin: 236.63px 200.905px;" id="el0xtgxumyane" class="animable"></polygon><g id="el6tc17414cjp"><path d="M258.4,261.26a11,11,0,0,1-1.15-.15l.16-.89a8.75,8.75,0,0,0,1.06.14Zm-2.07-.36a10.65,10.65,0,0,1-1.76-.67l.41-.81a8.71,8.71,0,0,0,1.59.61Zm-2.58-1.14a10.22,10.22,0,0,1-1.49-1.15l.62-.66a8.44,8.44,0,0,0,1.35,1.05Zm-2.14-1.83a10.17,10.17,0,0,1-1.12-1.51l.77-.46a9.63,9.63,0,0,0,1,1.38Z" style="fill: rgb(38, 50, 56); transform-origin: 254.48px 258.61px;" class="animable"></path></g><polygon points="250.39 203.53 251.01 201.47 253.08 202.09 252.46 200.95 250.4 200.33 249.78 202.39 250.39 203.53" style="fill: rgb(38, 50, 56); transform-origin: 251.43px 201.93px;" id="el34c78g5tgpr" class="animable"></polygon><g id="eltbn6uvs5eam"><path d="M219.75,220.69a1.89,1.89,0,0,1-1-.28l.45-.78a1.16,1.16,0,0,0,1.25,0l.44.79A2.35,2.35,0,0,1,219.75,220.69Zm1.95-.92-.61-.66a9.3,9.3,0,0,0,1.09-1.31l.74.51A9.66,9.66,0,0,1,221.7,219.77Zm-3.76-.08a3.62,3.62,0,0,1-.64-1.91l.89-.08a2.75,2.75,0,0,0,.48,1.46Zm5.48-2.15-.76-.47c.28-.46.57-1,.86-1.55l.8.41C224,216.52,223.72,217.06,223.42,217.54Zm-5.24-.68-.89,0a10.25,10.25,0,0,1,.26-1.85l.88.18A11,11,0,0,0,218.18,216.86Zm6.54-1.75-.81-.39c.26-.53.5-1.08.74-1.62l.83.35C225.24,214,225,214.57,224.72,215.11Zm-6.09-.81-.87-.23c.15-.55.33-1.14.54-1.76l.85.3C219,213.2,218.77,213.77,218.63,214.3Zm7.2-1.69-.84-.34c.24-.57.46-1.13.66-1.67l.84.32C226.29,211.46,226.06,212,225.83,212.61Zm-6.38-.84-.84-.32c.21-.55.43-1.12.67-1.69l.83.35C219.88,210.67,219.65,211.22,219.45,211.77Zm7.35-1.7-.84-.31c.23-.64.43-1.22.59-1.69l.85.28C227.24,208.83,227,209.42,226.8,210.07Zm-6.33-.78-.83-.36c.25-.56.5-1.11.76-1.65l.81.38C221,208.2,220.71,208.75,220.47,209.29Zm7.21-1.8-.86-.28.17-.52.86.26Zm-6.08-.63-.8-.4q.4-.83.81-1.62l.8.42C222.14,205.78,221.87,206.32,221.6,206.86Zm1.23-2.4L222,204l.87-1.59.78.44Zm1.29-2.36-.78-.44c.32-.57.63-1.1.9-1.57l.78.46C224.75,201,224.44,201.53,224.12,202.1Zm1.36-2.33-.77-.46c.58-1,.95-1.55.95-1.55l.76.48S226.05,198.81,225.48,199.77Z" style="fill: rgb(38, 50, 56); transform-origin: 222.57px 209.225px;" class="animable"></path></g><g id="elzhpfpew2tm"><path d="M289,211.35a3.29,3.29,0,0,1-1.8-1l.61-.66a2.55,2.55,0,0,0,1.3.74Zm1.16-.25-.48-.76a2.17,2.17,0,0,0,.78-1.23l.86.27A2.94,2.94,0,0,1,290.12,211.1Zm-3.61-1.41a13.3,13.3,0,0,1-1.1-1.5l.75-.48a13.8,13.8,0,0,0,1,1.4Zm5-1.25-.88-.14a9.61,9.61,0,0,0,.1-1.47v-.24l.9,0v.26A10,10,0,0,1,291.49,208.44Zm-6.57-1-.49-.88.79-.43c.16.3.32.59.48.86Zm5.74-1.69a13.41,13.41,0,0,0-.26-1.73l.88-.18a14.74,14.74,0,0,1,.28,1.83Zm-.46-2.58a16.25,16.25,0,0,0-.54-1.67l.84-.32a17.21,17.21,0,0,1,.57,1.76Zm-.87-2.48a17.44,17.44,0,0,0-.8-1.55l.77-.46a18.31,18.31,0,0,1,.85,1.65Zm-1.27-2.3c-.33-.52-.67-1-1-1.46l.72-.53c.35.47.69,1,1,1.5Zm-1.54-2.16c-.37-.48-.76-.93-1.14-1.35l.66-.61c.4.44.8.91,1.19,1.4Zm-1.75-2a15.58,15.58,0,0,0-1.3-1.18l.57-.7c.46.38.92.79,1.37,1.24Zm-2-1.72a12,12,0,0,0-1.46-.94l.43-.79a14.11,14.11,0,0,1,1.56,1Zm-2.23-1.33a6.61,6.61,0,0,0-1.58-.53l.11-.9a7.39,7.39,0,0,1,1.84.61Z" style="fill: rgb(38, 50, 56); transform-origin: 285.345px 200.55px;" class="animable"></path></g><g id="elmpgj0hxr2k"><path d="M308.07,281.13H189.47a11.54,11.54,0,0,1-11.54-11.54V122a11.54,11.54,0,0,1,11.54-11.54h118.6A11.54,11.54,0,0,1,319.61,122V269.59A11.54,11.54,0,0,1,308.07,281.13ZM189.47,116.47a5.54,5.54,0,0,0-5.54,5.54V269.59a5.54,5.54,0,0,0,5.54,5.54h118.6a5.54,5.54,0,0,0,5.54-5.54V122a5.54,5.54,0,0,0-5.54-5.54Z" style="fill: rgb(38, 50, 56); transform-origin: 248.77px 195.795px;" class="animable"></path></g><g id="ely1n6w8s9688"><path d="M319.61,269.59V122a11.48,11.48,0,0,0-3.08-7.83l-3.89,4.69a5.53,5.53,0,0,1,1,3.14V269.59a5.54,5.54,0,0,1-5.54,5.54H189.47a5.54,5.54,0,0,1-4.57-2.4L181,277.42a11.48,11.48,0,0,0,8.46,3.71h118.6A11.54,11.54,0,0,0,319.61,269.59Z" style="fill: rgb(255, 255, 255); opacity: 0.2; transform-origin: 250.305px 197.65px;" class="animable"></path></g></g><g id="freepik--character-2--inject-14" class="animable animator-active" style="transform-origin: 358.701px 271.86px;"><polygon points="357.08 350.15 349.73 350.04 349.32 332.95 356.68 333.06 357.08 350.15" style="fill: rgb(255, 139, 123); transform-origin: 353.2px 341.55px;" id="eljw8rq6dtpgc" class="animable"></polygon><g id="eleow5wzy52mc"><path d="M349.45,402.76l8,.13a.61.61,0,0,1,.6.51l1,6.57a1.14,1.14,0,0,1-1.14,1.3c-2.9-.1-7.08-.33-10.73-.39-4.26-.07-3.83.11-8.83,0-3-.05-3.66-3.12-2.38-3.38,5.84-1.17,6.43-1.23,11.6-4.22A3.55,3.55,0,0,1,349.45,402.76Z" style="fill: rgb(38, 50, 56); transform-origin: 347.206px 407.015px;" class="animable"></path></g><g id="elaor2j98ci5e"><polygon points="349.33 332.95 349.53 341.76 356.89 341.88 356.69 333.07 349.33 332.95" style="opacity: 0.2; transform-origin: 353.11px 337.415px;" class="animable"></polygon></g><g id="elx8c4vjnobea"><path d="M348.14,403.42a.15.15,0,0,0,.11-.14.18.18,0,0,0-.09-.18c-.34-.18-3.36-1.73-4.24-1.24a.51.51,0,0,0-.27.46h0a1,1,0,0,0,.36.85c.83.73,2.93.47,4.11.25Zm-4-1.28c.55-.19,2.18.45,3.37,1-1.62.24-2.83.15-3.3-.26a.64.64,0,0,1-.23-.56.17.17,0,0,1,.1-.18S344.14,402.15,344.16,402.14Z" style="fill: rgb(22, 160, 133); transform-origin: 345.949px 402.708px;" class="animable"></path></g><g id="elphx2rin370p"><path d="M348.14,403.42l.05,0a.17.17,0,0,0,.06-.16,5.18,5.18,0,0,0-1.24-2.86,1.32,1.32,0,0,0-1-.31h0c-.47,0-.6.28-.63.48-.11.83,1.71,2.45,2.61,2.86A.2.2,0,0,0,348.14,403.42Zm-2.24-3a.48.48,0,0,1,.18,0h0a.92.92,0,0,1,.72.23,4.3,4.3,0,0,1,1.05,2.29c-.93-.56-2.17-1.83-2.1-2.33C345.75,400.58,345.76,400.5,345.9,400.45Zm.16-.21h0Z" style="fill: rgb(22, 160, 133); transform-origin: 346.814px 401.761px;" class="animable"></path></g><g id="ellmedk4i47gn"><path d="M361.54,314.15c9-37.61,17.5-53.93,14.12-72.58l-26,.31s-10.24,51.15-8.06,73.21c2.26,22.94,5.58,76.32,5.58,76.32l11.85.17S366,339.76,361.54,314.15Z" style="fill: rgb(38, 50, 56); transform-origin: 358.857px 316.575px;" class="animable"></path></g><g id="el678f3vm1e8m"><path d="M362.85,308.79c4.81-19.17,9.31-32.5,11.73-43.67C357.68,271.19,359.12,292.19,362.85,308.79Z" style="opacity: 0.5; transform-origin: 367.52px 286.955px;" class="animable"></path></g><polygon points="345.4 333.82 346.38 338.91 359.43 339.14 359.95 334.34 345.4 333.82" style="fill: rgb(38, 50, 56); transform-origin: 352.675px 336.48px;" id="elzxujigsx6lp" class="animable"></polygon><g id="elapv9utyjrf"><path d="M394.9,402.76l8,.13a.57.57,0,0,1,.57.51l.7,6.57a1.21,1.21,0,0,1-1.21,1.3c-2.89-.1-3.8-.33-7.44-.39-4.26-.07-2.3.11-7.29,0-3-.05-3.5-3.11-2.21-3.38,4.09-.85,5.16-2.48,7-4.22A2.57,2.57,0,0,1,394.9,402.76Z" style="fill: rgb(38, 50, 56); transform-origin: 394.763px 407.006px;" class="animable"></path></g><g id="el2zruxasp076"></g><g id="elyunj3knjyzq"><path d="M396.35,403.32a.17.17,0,0,0,.16-.09.17.17,0,0,0,0-.2c-.25-.28-2.48-2.74-3.49-2.6a.56.56,0,0,0-.44.33h0a1,1,0,0,0,0,.91c.5,1,2.58,1.44,3.77,1.65Zm-3.23-2.55c.58,0,1.86,1.17,2.75,2.11-1.61-.33-2.72-.83-3-1.37a.64.64,0,0,1,0-.6.21.21,0,0,1,.17-.13Z" style="fill: rgb(22, 160, 133); transform-origin: 394.507px 401.872px;" class="animable"></path></g><g id="el8j7yg3oo8w"><path d="M396.35,403.32h0a.18.18,0,0,0,.13-.12c0-.08.55-2,0-3.06a1.27,1.27,0,0,0-.8-.62h0c-.47-.13-.68.05-.78.22-.43.73.65,2.85,1.33,3.54A.21.21,0,0,0,396.35,403.32Zm-.94-3.51.18,0h0a.93.93,0,0,1,.58.47,4,4,0,0,1,.1,2.46c-.66-.83-1.32-2.43-1.07-2.86A.21.21,0,0,1,395.41,399.81Zm.22-.13Z" style="fill: rgb(22, 160, 133); transform-origin: 395.763px 401.398px;" class="animable"></path></g><g id="elgo8wchcsrgj"><path d="M391.72,238.38H364.38c1.59,17.8,4.27,46.26,6.34,59.73,3.42,22.33,19.92,96.13,19.92,96.13L403.76,393s-7.34-72.56-8.68-94.87C394.16,282.89,392.69,256.15,391.72,238.38Z" style="fill: rgb(38, 50, 56); transform-origin: 384.07px 316.31px;" class="animable"></path></g><g id="elfhooykslzij"><path d="M313.21,197.78l-4.56-6.91-4.8,7.55s3.91,5.79,7.56,3.53Z" style="fill: rgb(255, 139, 123); transform-origin: 308.53px 196.672px;" class="animable"></path></g><g id="eldg3ssd6c27a"><path d="M303.09,189.93l-2.43,2.8a2.33,2.33,0,0,0,.29,3.35l2.9,2.34,4.8-7.55L306,189.41A2.33,2.33,0,0,0,303.09,189.93Z" style="fill: rgb(255, 139, 123); transform-origin: 304.366px 193.767px;" class="animable"></path></g><g id="el51myx4638ps"><path d="M361.61,184c-1.17,2.35-2.43,4.51-3.69,6.74s-2.6,4.39-4,6.54-2.85,4.29-4.43,6.4a59.63,59.63,0,0,1-5.32,6.34l.48-.61a9.65,9.65,0,0,1-3.72,3.07,11.16,11.16,0,0,1-3.67,1,18.51,18.51,0,0,1-5.59-.37,41.46,41.46,0,0,1-8.59-3,77.21,77.21,0,0,1-7.49-4,79.26,79.26,0,0,1-7-4.68,3.16,3.16,0,0,1,3-5.46l.1,0c2.39.93,4.88,1.91,7.33,2.78s4.9,1.71,7.31,2.39a37.13,37.13,0,0,0,6.9,1.41,7.49,7.49,0,0,0,2.45-.1c.23-.07.3-.15.18-.12a1.35,1.35,0,0,0-.67.49l.48-.6c1.26-1.56,2.55-3.54,3.81-5.49s2.48-4,3.7-6.12l3.62-6.3,3.57-6.32h0A6.33,6.33,0,0,1,361.61,184Z" style="fill: rgb(255, 139, 123); transform-origin: 334.879px 194.085px;" class="animable"></path></g><g id="elwqh04er2pbj"><path d="M356.07,172.63c-7.75,3.48-13.33,17.43-13.33,17.43l13.55,10s3.64-3,6.62-10.5C363.82,187.34,363.93,169.09,356.07,172.63Z" style="fill: rgb(22, 160, 133); transform-origin: 353.036px 186.118px;" class="animable"></path></g><g id="el0mms8toptu3"><path d="M353,184.36l-5.1,9.55,8.35,6.19a11.79,11.79,0,0,0,1-1l3.81-9.37-2.22-5.38Z" style="opacity: 0.2; transform-origin: 354.48px 192.225px;" class="animable"></path></g><g id="elhxvsmci6m1q"><path d="M359.34,171.09a87.81,87.81,0,0,1,24.83-1.29,9.43,9.43,0,0,1,8.78,8.09c1.53,10.4,3.91,30.93-.4,63.68-3.9,1.58-15.39,2.49-24.52,2.64-1,0-3.42-2.09-3.42-2.09s-2.19,2.08-3.45,2c-6.05-.2-10.86-.82-12-1.9-2.47-5.67-4-20.44,2.55-34.36.07-8-1.52-16.85-1.65-25.42A11.71,11.71,0,0,1,359.34,171.09Z" style="fill: rgb(22, 160, 133); transform-origin: 371.02px 206.827px;" class="animable"></path></g><g id="elte8czc6i53e"><path d="M374.37,156.44c.28,5.48.88,11.83,4.62,14.94a13.38,13.38,0,0,1-11.44,7.46c-6.1.31-4.75-4.38-3.53-6.86,2.83-2.79,1.86-5.9,1.4-8.11Z" style="fill: rgb(255, 139, 123); transform-origin: 370.983px 167.647px;" class="animable"></path></g><g id="elmsfzvk2ul8p"><path d="M372.45,159.11c0-.34,0-.69-.06-1l-7,5.79a12.47,12.47,0,0,1,.45,4.68C369.26,166.48,372.55,162.44,372.45,159.11Z" style="opacity: 0.2; transform-origin: 368.921px 163.345px;" class="animable"></path></g><g id="elxjnjl2hjsm"><path d="M376.79,168.67c0,1.68-2.51,7.64-9.77,10.18,2.72,0,3.6,3.47,3.6,3.47s9.77-5,9.18-11A3,3,0,0,0,376.79,168.67Z" style="fill: rgb(22, 160, 133); transform-origin: 373.423px 175.495px;" class="animable"></path></g><g id="el24tc4viq27ki"><path d="M376.79,168.67c0,1.68-2.51,7.64-9.77,10.18,2.72,0,3.6,3.47,3.6,3.47s9.77-5,9.18-11A3,3,0,0,0,376.79,168.67Z" style="fill: rgb(255, 255, 255); opacity: 0.5; transform-origin: 373.423px 175.495px;" class="animable"></path></g><g id="el9qflkepjjp"><path d="M365.69,169.12c0,1.65-2.18,5.1,1.33,9.73-2.72,0-4.58,2.73-4.58,2.73a11.39,11.39,0,0,1,.2-11.1A5.91,5.91,0,0,1,365.69,169.12Z" style="fill: rgb(22, 160, 133); transform-origin: 364.057px 175.35px;" class="animable"></path></g><g id="elmps2yfi6jv"><path d="M365.69,169.12c0,1.65-2.18,5.1,1.33,9.73-2.72,0-4.58,2.73-4.58,2.73a11.39,11.39,0,0,1,.2-11.1A5.91,5.91,0,0,1,365.69,169.12Z" style="fill: rgb(255, 255, 255); opacity: 0.5; transform-origin: 364.057px 175.35px;" class="animable"></path></g><g id="elezvoo37gmf"><path d="M375.4,149.47c-.92,7.25-1.09,11.54-5,15-5.91,5.21-14.68,1.21-15.94-6.19-1.14-6.65.56-17.38,7.88-19.75A10.06,10.06,0,0,1,375.4,149.47Z" style="fill: rgb(255, 139, 123); transform-origin: 364.815px 152.438px;" class="animable"></path></g><g id="elb60ijembu25"><path d="M365.64,150.42a4,4,0,0,1,3-.23A8,8,0,0,1,365.64,150.42Z" style="opacity: 0.2; transform-origin: 367.14px 150.236px;" class="animable"></path></g><g id="elxal8db9x0d"><path d="M365.74,151.14a3.26,3.26,0,0,1,2.71.48A6.41,6.41,0,0,1,365.74,151.14Z" style="opacity: 0.2; transform-origin: 367.095px 151.328px;" class="animable"></path></g><g id="elqncf4iitefa"><path d="M363.8,150.93c0,.59-.38,1-.77,1s-.67-.53-.63-1.13.38-1,.77-1S363.84,150.34,363.8,150.93Z" style="fill: rgb(38, 50, 56); transform-origin: 363.1px 150.865px;" class="animable"></path></g><g id="eluul531yinf"><path d="M356.39,150.61c0,.59-.38,1-.77,1s-.67-.53-.63-1.13.38-1.05.77-1S356.43,150,356.39,150.61Z" style="fill: rgb(38, 50, 56); transform-origin: 355.69px 150.543px;" class="animable"></path></g><g id="el55intuqc6oa"><path d="M358.54,151.36a21.05,21.05,0,0,1-3.45,4.66,3.45,3.45,0,0,0,2.74.91Z" style="fill: rgb(255, 86, 82); transform-origin: 356.815px 154.156px;" class="animable"></path></g><g id="elo3hgw6jxy8e"><path d="M365.14,147a.34.34,0,0,0,.17,0,.34.34,0,0,0,.1-.48,3.47,3.47,0,0,0-2.74-1.65.35.35,0,0,0-.35.35.35.35,0,0,0,.35.35h0a2.79,2.79,0,0,1,2.16,1.33A.33.33,0,0,0,365.14,147Z" style="fill: rgb(38, 50, 56); transform-origin: 363.895px 145.94px;" class="animable"></path></g><g id="elyueuaxxazo"><path d="M354.14,147.59a.33.33,0,0,0,.31-.1,2.77,2.77,0,0,1,2.36-.88.34.34,0,0,0,.4-.27.35.35,0,0,0-.27-.41,3.41,3.41,0,0,0-3,1.07.36.36,0,0,0,0,.5A.31.31,0,0,0,354.14,147.59Z" style="fill: rgb(38, 50, 56); transform-origin: 355.528px 146.746px;" class="animable"></path></g><g id="elzze9ufsnkjq"><path d="M394.1,187.28l-6.51-4.94-1.72,5.24s5.32,11.71,9.11,15.82C394.89,197.1,394.54,191.74,394.1,187.28Z" style="opacity: 0.2; transform-origin: 390.425px 192.87px;" class="animable"></path></g><g id="elyhr4i5j4xph"><path d="M392.62,176.35c.52.18.78.28,1.14.42l1,.38c.64.27,1.27.56,1.88.85,1.24.6,2.44,1.23,3.62,1.91a44.52,44.52,0,0,1,6.71,4.81,37.33,37.33,0,0,1,5.76,6.25,31.3,31.3,0,0,1,2.33,3.71c.33.66.67,1.3,1,2l.22.5.11.26.16.39a10.16,10.16,0,0,1,.53,1.76,11.9,11.9,0,0,1-.47,6.42,18.63,18.63,0,0,1-2.28,4.44,34.26,34.26,0,0,1-5.65,6.13,58.88,58.88,0,0,1-6.16,4.62,60.87,60.87,0,0,1-6.59,3.78,3.16,3.16,0,0,1-3.55-5.14l.1-.09a106.47,106.47,0,0,0,9.49-9.8,27.92,27.92,0,0,0,3.42-5,7.38,7.38,0,0,0,.75-2.06c.08-.55,0-.77-.08-.68l0,.05s0,0,0,0l-.09-.15-.17-.3c-.22-.4-.49-.79-.74-1.18-.54-.76-1.11-1.51-1.72-2.24a32.2,32.2,0,0,0-4.28-4,45.2,45.2,0,0,0-5.11-3.38c-.89-.52-1.81-1-2.74-1.46l-1.39-.64-.67-.3-.54-.23-.4-.16a6.32,6.32,0,0,1,4.5-11.81Z" style="fill: rgb(255, 139, 123); transform-origin: 400.778px 200.665px;" class="animable"></path></g><g id="el1v2onfcy3xr"><path d="M385.54,171C394,170,405,181.53,405,181.53l-4.6,16.29a39.31,39.31,0,0,1-13.05-8.13C385.58,188,377,171.91,385.54,171Z" style="fill: rgb(22, 160, 133); transform-origin: 393.408px 184.379px;" class="animable"></path></g><g id="el9k6e8o1cbz"><path d="M395.73,219.46l-7.27-1.68.51,8.92s6.76.72,7.73-2.81Z" style="fill: rgb(255, 139, 123); transform-origin: 392.58px 222.27px;" class="animable"></path></g><g id="eloqmtua3tv6a"><path d="M381.86,221.83l.71,3.1a2.58,2.58,0,0,0,2.68,2l3.72-.23-.51-8.92-4.6.94A2.6,2.6,0,0,0,381.86,221.83Z" style="fill: rgb(255, 139, 123); transform-origin: 385.384px 222.358px;" class="animable"></path></g><g id="el4jzbgec4xk4"><path d="M354.13,206.84s10.87-8.07,22.54-.7C376.67,206.14,367.16,203.67,354.13,206.84Z" style="opacity: 0.2; transform-origin: 365.4px 204.938px;" class="animable"></path></g><g id="el8cfnhtydmss"><path d="M372,154.52s-1.34-2.39-1-7.14-4.07-4-5.22-6.73c0,0-8.22-.23-8.26-5.67,0-7,11.45,2.67,15.36,3.43s10.24,7.25,2.75,16.66Z" style="fill: rgb(38, 50, 56); transform-origin: 368.318px 143.76px;" class="animable"></path></g><g id="elthnit22m39"><path d="M375.67,155.07a17.17,17.17,0,0,0,2.8-4.82,30.05,30.05,0,0,1-7.48-1.16,12.14,12.14,0,0,0,1.05,5.43Z" style="fill: rgb(255, 255, 255); opacity: 0.3; transform-origin: 374.725px 152.08px;" class="animable"></path></g><g id="elns1cqwv580r"><path d="M377.39,157a6.88,6.88,0,0,1-4.33,3c-2.38.5-3.44-1.67-2.66-3.84.7-1.95,2.78-4.56,5.12-4.09A3.14,3.14,0,0,1,377.39,157Z" style="fill: rgb(255, 139, 123); transform-origin: 374.074px 156.044px;" class="animable"></path></g><g id="eljqtomg9n3jr"><path d="M359.61,160.29c.14.73.64,1.24,1.11,1.15s.74-.76.6-1.48-.64-1.24-1.11-1.15S359.46,159.57,359.61,160.29Z" style="fill: rgb(38, 50, 56); transform-origin: 360.463px 160.125px;" class="animable"></path></g></g><g id="freepik--character-1--inject-14" class="animable" style="transform-origin: 131.945px 275.547px;"><g id="elv8omdmxih6"><path d="M115.14,187.53l2.63.37c-.27,10.28-3.15,12.34-3.15,12.34a5.29,5.29,0,0,0-1.56-2.15,3.63,3.63,0,0,0,.41-3.09,4.44,4.44,0,0,1-1,2.64,9.71,9.71,0,0,0-1.67-1,13,13,0,0,1,1.7-5.07s-1.92.78-2.48,4.75c-.5-.18-.83-.27-.83-.27C108.66,189.76,115.14,187.53,115.14,187.53Z" style="fill: rgb(38, 50, 56); transform-origin: 113.465px 193.885px;" class="animable"></path></g><g id="elzz2u6t3y8zq"><path d="M118.4,185.56s.27,3.84-2.49,3.31-.43-5.56-.43-5.56Z" style="fill: rgb(22, 160, 133); transform-origin: 116.484px 186.115px;" class="animable"></path></g><g id="el78ecyqv0wj9"><path d="M112.85,175.38s1,11.09,3.69,12.05,2.28-5.31,2.28-5.31l-2-7.91-3.29-.6Z" style="fill: rgb(38, 50, 56); transform-origin: 115.846px 180.57px;" class="animable"></path></g><g id="elabx7u5rhc68"><path d="M133.35,166.25s6.72,2.69,2.16,10.1-3.66-10.1-3.66-10.1Z" style="fill: rgb(38, 50, 56); transform-origin: 134.437px 172.214px;" class="animable"></path></g><g id="eln4pt6gz8w3h"><path d="M146,403.39c-1.63-4-1.06-30.63-.56-54.15.24-11.42.47-22.2.47-30.26,2.44-26.66-2.64-69.54-2.66-70l0-.38-25.18-2,0,.41c0,.27-2.86,27.1,11.18,70.76-5.5,40.5,10,85.8,10.12,86.25l0,.13.11.08A5.31,5.31,0,0,0,142,405a7.43,7.43,0,0,0,3.09-.34c.71-.29.92-.7,1-1l0-.12Z" style="fill: rgb(205, 91, 81); transform-origin: 132.202px 325.819px;" class="animable"></path></g><g id="elz8ka4356tjs"><path d="M154.76,409.29c-5.89,0-6.49-.39-9.82-.5-2.86-.1-3.2.51-6.08.52-1.91,0-2.62-2.17-2.27-3.79.22-1,.62-2.1.81-3.31a1.3,1.3,0,0,1,1.31-1.12h6.59a1.77,1.77,0,0,1,1.29.57,11.73,11.73,0,0,0,8.55,4.27C158.38,406.15,157.12,409.29,154.76,409.29Z" style="fill: rgb(38, 50, 56); transform-origin: 146.799px 405.2px;" class="animable"></path></g><g id="el469s3x7ei1h"><path d="M112,248.16l-.13.11c-.64.58-15.62,14.85-10.78,73-11,26.4-.16,81.49-.05,82.05l.05.25.25.08a13.42,13.42,0,0,0,3.9.63,6.38,6.38,0,0,0,3.21-.72l.23-.14,0-.27c-1.46-16.7,5.51-58.67,10.56-82.82,4.88-23.33,17.26-71.18,17.38-71.66l.15-.55Z" style="fill: rgb(205, 91, 81); transform-origin: 116.467px 326.203px;" class="animable"></path></g><g id="eljtw2eaywsr"><path d="M115.57,410c-6,0-5.6-.09-9-.21-2.9-.1-3.57.26-5.9.21-2,0-2-1.9-1.57-4.05.17-.82.42-1.78.66-3a1.44,1.44,0,0,1,1.43-1.17h7a1.66,1.66,0,0,1,1.33.68,10.14,10.14,0,0,0,7,3.93C119.85,406.83,118,410,115.57,410Z" style="fill: rgb(38, 50, 56); transform-origin: 108.598px 405.892px;" class="animable"></path></g><g id="elxtjfsd2tghb"><path d="M134.69,210.43c2.12,3.85,4.4,7.56,6.74,11.26q1.74,2.77,3.56,5.51c.61.91,1.2,1.83,1.82,2.73l2,2.93a7.13,7.13,0,0,0,2.32,2.17,6.48,6.48,0,0,0,2.34.81,5.64,5.64,0,0,0,1.29,0,5.34,5.34,0,0,0,1.15-.18,7,7,0,0,0,2.76-1.42,9.58,9.58,0,0,0,1.24-1.27,13.79,13.79,0,0,0,1.37-2.06c.35-.63.64-1.23.91-1.81a52.19,52.19,0,0,0,2.36-6.73,91.74,91.74,0,0,0,2.67-13.23,3,3,0,0,0-5.73-1.65l0,.06c-1.81,3.89-3.55,7.88-5.38,11.63-.37.76-.75,1.51-1.13,2.25l-.12-.21q-1.56-2.86-3.16-5.7c-2.13-3.78-4.3-7.55-6.58-11.22v0a6,6,0,0,0-10.39,6.1Z" style="fill: rgb(22, 160, 133); transform-origin: 150.582px 218.601px;" class="animable"></path></g><g id="elqxmg2stz7c"><path d="M134.69,210.43c2.12,3.85,4.4,7.56,6.74,11.26q1.74,2.77,3.56,5.51c.61.91,1.2,1.83,1.82,2.73l2,2.93a7.13,7.13,0,0,0,2.32,2.17,6.48,6.48,0,0,0,2.34.81,5.64,5.64,0,0,0,1.29,0,5.34,5.34,0,0,0,1.15-.18,7,7,0,0,0,2.76-1.42,9.58,9.58,0,0,0,1.24-1.27,13.79,13.79,0,0,0,1.37-2.06c.35-.63.64-1.23.91-1.81a52.19,52.19,0,0,0,2.36-6.73,91.74,91.74,0,0,0,2.67-13.23,3,3,0,0,0-5.73-1.65l0,.06c-1.81,3.89-3.55,7.88-5.38,11.63-.37.76-.75,1.51-1.13,2.25l-.12-.21q-1.56-2.86-3.16-5.7c-2.13-3.78-4.3-7.55-6.58-11.22v0a6,6,0,0,0-10.39,6.1Z" style="fill: rgb(255, 255, 255); opacity: 0.6; transform-origin: 150.582px 218.601px;" class="animable"></path></g><g id="els4xcbtpo4zq"><path d="M146.47,209.58a130.13,130.13,0,0,1-.21,14c-.25,6.07.8,23.37-3.5,24.47-3.32,1.94-20.18,1.23-30.95-.16-5.12-1.5,3.56-14.94-6-40.12-1.66-4.39,1.67-8.81,6.49-9.27,1.29-.12,2.65-.23,4.05-.29a110.19,110.19,0,0,1,14.77,0c1.6.14,3.27.33,4.86.53C141.77,199.49,146.29,204.2,146.47,209.58Z" style="fill: rgb(22, 160, 133); transform-origin: 125.973px 223.601px;" class="animable"></path></g><g id="elh2cm0w86j5m"><path d="M146.47,209.58a130.13,130.13,0,0,1-.21,14c-.25,6.07.8,23.37-3.5,24.47-3.32,1.94-20.18,1.23-30.95-.16-5.12-1.5,3.56-14.94-6-40.12-1.66-4.39,1.67-8.81,6.49-9.27,1.29-.12,2.65-.23,4.05-.29a110.19,110.19,0,0,1,14.77,0c1.6.14,3.27.33,4.86.53C141.77,199.49,146.29,204.2,146.47,209.58Z" style="fill: rgb(255, 255, 255); opacity: 0.8; transform-origin: 125.973px 223.601px;" class="animable"></path></g><g id="elwjn1abea91s"><path d="M130,201.88c8.07-.7,2.93-3.31,1.95-3.65-5.22-1.85-5.55-5.2-4.9-8.89l-10.6-7.74c1.29,4.75,2.68,13.16.74,16.63,0,0-2.22,4.31,10.32,3.78C128.16,202,130,201.88,130,201.88Z" style="fill: rgb(205, 91, 81); transform-origin: 125.457px 191.828px;" class="animable"></path></g><g id="elv81z42l4k67"><path d="M121.37,184.76l5.71,4.58a13.77,13.77,0,0,0-.26,2.62c-2-.3-5-2.52-5.37-4.64A7.33,7.33,0,0,1,121.37,184.76Z" style="opacity: 0.2; transform-origin: 124.187px 188.36px;" class="animable"></path></g><g id="elzobuaktthuo"><path d="M113.38,173c1.45,7.67,1.89,10.94,6.27,14.62,6.58,5.54,15.63,2.61,16.49-5.21.78-7-1.7-18.4-9.61-20.94A10,10,0,0,0,113.38,173Z" style="fill: rgb(205, 91, 81); transform-origin: 124.715px 175.68px;" class="animable"></path></g><g id="el1v96jmox8fu"><path d="M125.53,174.26c.1.65.51,1.15.93,1.12s.67-.58.58-1.23-.51-1.15-.92-1.12S125.44,173.61,125.53,174.26Z" style="fill: rgb(38, 50, 56); transform-origin: 126.285px 174.205px;" class="animable"></path></g><g id="elqpi0ige4drp"><path d="M133.37,173.8c.09.65.51,1.15.92,1.12s.68-.58.59-1.23-.51-1.15-.93-1.12S133.28,173.15,133.37,173.8Z" style="fill: rgb(38, 50, 56); transform-origin: 134.125px 173.745px;" class="animable"></path></g><g id="eljliawpgxln"><path d="M133.78,172.62l1.46-.56S134.63,173.33,133.78,172.62Z" style="fill: rgb(38, 50, 56); transform-origin: 134.51px 172.448px;" class="animable"></path></g><g id="elpj4677mocmm"><path d="M131.34,175a19.23,19.23,0,0,0,2.86,4,2.6,2.6,0,0,1-2.2.6Z" style="fill: rgb(186, 34, 31); transform-origin: 132.77px 177.323px;" class="animable"></path></g><g id="elqbox68l0z7c"><path d="M123.35,170.77a.3.3,0,0,0,.26-.11,2.78,2.78,0,0,1,2.49-.95.36.36,0,0,0,.42-.3.42.42,0,0,0-.33-.45,3.46,3.46,0,0,0-3.15,1.16.38.38,0,0,0,0,.54A.36.36,0,0,0,123.35,170.77Z" style="fill: rgb(38, 50, 56); transform-origin: 124.725px 169.846px;" class="animable"></path></g><g id="el1d7348u2itx"><path d="M135.13,170.07a.34.34,0,0,0,.26-.08.38.38,0,0,0,0-.54,4,4,0,0,0-3.25-1.44.34.34,0,0,0-.3.42.41.41,0,0,0,.44.33,3.2,3.2,0,0,1,2.56,1.17A.38.38,0,0,0,135.13,170.07Z" style="fill: rgb(38, 50, 56); transform-origin: 133.666px 169.039px;" class="animable"></path></g><g id="elkxfpjrwc58"><path d="M125.94,173.08l1.46-.56S126.79,173.79,125.94,173.08Z" style="fill: rgb(38, 50, 56); transform-origin: 126.67px 172.908px;" class="animable"></path></g><g id="elv0nwb6qcbk"><path d="M163,199.11l-1.4,1.67a2.52,2.52,0,0,0-.51,2.27l.95,3.71a4.09,4.09,0,0,0,1.17,1.61,2.83,2.83,0,0,0,4.47-.81,19,19,0,0,0,1.46-4.51l.38-1.31a2.11,2.11,0,0,0-1.4-2.66l-2.58-.78A2.43,2.43,0,0,0,163,199.11Z" style="fill: rgb(38, 50, 56); transform-origin: 165.313px 203.672px;" class="animable"></path></g><g id="elihxxsbgo26p"><path d="M130.5,182.92a4.58,4.58,0,0,0,1-.08.18.18,0,0,0,.14-.2h0a.17.17,0,0,0-.19-.15,4.64,4.64,0,0,1-4.05-1.13.18.18,0,1,0-.26.24A4.81,4.81,0,0,0,130.5,182.92Z" style="fill: rgb(38, 50, 56); transform-origin: 129.355px 182.099px;" class="animable"></path></g><g id="elnmg3bet7ui"><path d="M104.24,324.55c8.48,4.17,23.87,6.92,44.29,1.09,0-27.88-3.78-74.81-4.11-79.4,0,0-24.23.74-34.07.74-10.77,15-7.93,45-14.34,73.45.62.87,4.3,1.74,5.63,2.63Z" style="fill: rgb(22, 160, 133); transform-origin: 122.27px 287.609px;" class="animable"></path></g><g id="ell8h7ssh4gi"><path d="M117,197.8l10.64,23.27-15.4,96.18-22.51-5s5-5.85,7.61-29.44,12-36.57,12-36.57,1.11-15.47.48-20.57-5.1-19.29-5.1-19.29S102.27,198.22,117,197.8Z" style="fill: rgb(22, 160, 133); transform-origin: 108.685px 257.525px;" class="animable"></path></g><g id="el5abd7ftpfh4"><path d="M117,197.8l10.64,23.27-15.4,96.18-22.51-5s5-5.85,7.61-29.44,12-36.57,12-36.57,1.11-15.47.48-20.57-5.1-19.29-5.1-19.29S102.27,198.22,117,197.8Z" style="fill: rgb(255, 255, 255); opacity: 0.5; transform-origin: 108.685px 257.525px;" class="animable"></path></g><g id="eld7x9980itvr"><path d="M107,260.86l11.27,1.56s.44,11.61-7.21,10.13S107,260.86,107,260.86Z" style="fill: rgb(255, 255, 255); opacity: 0.5; transform-origin: 112.217px 266.77px;" class="animable"></path></g><g id="eldebwv5rtsso"><polygon points="116.99 145.19 115.38 151.41 117.66 152.79 114.63 155.35 125.99 164.9 116.71 155.48 119.93 152.72 116.63 150.94 116.99 145.19" style="fill: rgb(255, 255, 255); opacity: 0.5; transform-origin: 120.31px 155.045px;" class="animable"></polygon></g><g id="elimwgzbd2b9"><path d="M133.55,198.22s5.58,3.34,2.73,22.93l7.11,96.1,11.47-3.35s-4.94-13.55-5.41-23.27-4-44-4-44,1.53-4.58,1.17-13.31,1.74-22.58-.36-27.4A13.52,13.52,0,0,0,133.55,198.22Z" style="fill: rgb(22, 160, 133); transform-origin: 144.205px 257.73px;" class="animable"></path></g><g id="elfimrb69y524"><path d="M133.55,198.22s5.58,3.34,2.73,22.93l7.11,96.1,11.47-3.35s-4.94-13.55-5.41-23.27-4-44-4-44,1.53-4.58,1.17-13.31,1.74-22.58-.36-27.4A13.52,13.52,0,0,0,133.55,198.22Z" style="fill: rgb(255, 255, 255); opacity: 0.5; transform-origin: 144.205px 257.73px;" class="animable"></path></g><g id="elq5noplwxo8"><polygon points="136.1 145.03 141.22 148.8 139.97 151.15 143.03 152.76 137.41 163.97 140.75 153.65 137.98 152.25 139.88 148.85 136.1 145.03" style="fill: rgb(255, 255, 255); opacity: 0.5; transform-origin: 139.565px 154.5px;" class="animable"></polygon></g><g id="eln5wy8unmib"><path d="M142,263.28l4.16.25s1.24,10.33-1.62,10.4S142,263.28,142,263.28Z" style="fill: rgb(255, 255, 255); opacity: 0.5; transform-origin: 144.208px 268.605px;" class="animable"></path></g><g id="elvqulqhge8c9"><path d="M123,166.63a37.51,37.51,0,0,1-3.58,8.39s.35,7.13-2.28,5.9-3.35-2-3.9-1.28S112,175,112,175l6.08-7.44Z" style="fill: rgb(38, 50, 56); transform-origin: 117.5px 173.846px;" class="animable"></path></g><g id="elibpw33hhi5j"><path d="M115.69,177.15l.3.28,1-1a6.81,6.81,0,0,1,3.89-2l3-.09a3.25,3.25,0,0,0,6.48-.3.53.53,0,0,1,.66,0,3.31,3.31,0,1,0,0-.47.92.92,0,0,0-.71,0,3.25,3.25,0,0,0-6.46.35l-3,.09a7.38,7.38,0,0,0-4.19,2.15Zm15.71-3.28a2.84,2.84,0,1,1,2.93,2.75A2.86,2.86,0,0,1,131.4,173.87Zm-7.15.22a2.84,2.84,0,1,1,2.93,2.76A2.83,2.83,0,0,1,124.25,174.09Z" style="fill: rgb(22, 160, 133); transform-origin: 126.661px 173.963px;" class="animable"></path></g><g id="elx6uy2m6qiz"><path d="M107,178.34c.86,3,4.08-.79,5-1.91h0c-2.68,3.63-2.79,7.76-.7,7.7,1.72,0,1.28-5.13,1-7.17,7.37-13,22.75-9.63,22.75-9.63-1.93-9-13.79-12.67-20.46-7.39-5.76,4.56-3.65,13.26-2.73,16.18C110.69,176.17,106.49,176.41,107,178.34Zm3.71,4.81c-1.24,0,1-5.23,1-5.23S112.2,183.14,110.74,183.15Zm0-6.36s-2.5,3-3,1.61S110.74,176.79,110.74,176.79Z" style="fill: rgb(22, 160, 133); transform-origin: 121.004px 170.816px;" class="animable"></path></g><g id="elao0fr11xn9"><path d="M107,178.34c.86,3,4.08-.79,5-1.91h0c-2.68,3.63-2.79,7.76-.7,7.7,1.72,0,1.28-5.13,1-7.17,7.37-13,22.75-9.63,22.75-9.63-1.93-9-13.79-12.67-20.46-7.39-5.76,4.56-3.65,13.26-2.73,16.18C110.69,176.17,106.49,176.41,107,178.34Zm3.71,4.81c-1.24,0,1-5.23,1-5.23S112.2,183.14,110.74,183.15Zm0-6.36s-2.5,3-3,1.61S110.74,176.79,110.74,176.79Z" style="fill: rgb(255, 255, 255); opacity: 0.5; transform-origin: 121.004px 170.816px;" class="animable"></path></g><g id="elhxc6a0stqg"><path d="M136.66,178.17c-1.19-1.85-9.08-.61-16.35.24,0,.1,0,.19,0,.28-1.72-2.62-4.77-3.1-6.2-1.1,2-1.77,4.71-.65,6.09,1.6a20.45,20.45,0,0,0-.36,6.71,18.44,18.44,0,0,1-5.85-6.85c1.31,3.27,3.81,6.55,6,7.73,0,.22.07.44.12.66,3.72,3.53,10.2,4.31,13.67,1.52C136.18,186.86,136.9,183,136.66,178.17Z" style="fill: rgb(22, 160, 133); transform-origin: 125.347px 183.502px;" class="animable"></path></g><g id="elbfkxwet07dj"><path d="M136.66,178.17c-1.19-1.85-9.08-.61-16.35.24,0,.1,0,.19,0,.28-1.72-2.62-4.77-3.1-6.2-1.1,2-1.77,4.71-.65,6.09,1.6a20.45,20.45,0,0,0-.36,6.71,18.44,18.44,0,0,1-5.85-6.85c1.31,3.27,3.81,6.55,6,7.73,0,.22.07.44.12.66,3.72,3.53,10.2,4.31,13.67,1.52C136.18,186.86,136.9,183,136.66,178.17Z" style="fill: rgb(255, 255, 255); opacity: 0.5; transform-origin: 125.347px 183.502px;" class="animable"></path></g><g id="elja51rwjxue"><path d="M112.64,180.38a5.37,5.37,0,0,0,3.26,2.86c1.79.47,2.56-1.57,2-3.62-.54-1.84-2.11-4.3-3.86-3.86S111.74,178.58,112.64,180.38Z" style="fill: rgb(205, 91, 81); transform-origin: 115.147px 179.508px;" class="animable"></path></g><g id="elnoazbqi2ldh"><path d="M121.78,243.65h19.76a1.7,1.7,0,0,0,1.66-1.53l2.38-27.2a1.38,1.38,0,0,0-1.39-1.53H124.43a1.7,1.7,0,0,0-1.66,1.53l-2.38,27.2A1.38,1.38,0,0,0,121.78,243.65Z" style="fill: rgb(38, 50, 56); transform-origin: 132.985px 228.52px;" class="animable"></path></g><g id="el3nprs1rhhrh"><path d="M122.92,243.65h19.75a1.71,1.71,0,0,0,1.67-1.53l2.38-27.2a1.39,1.39,0,0,0-1.4-1.53H125.56a1.7,1.7,0,0,0-1.66,1.53l-2.38,27.2A1.38,1.38,0,0,0,122.92,243.65Z" style="fill: rgb(38, 50, 56); transform-origin: 134.119px 228.52px;" class="animable"></path></g><g id="el28qs69elakuj"><path d="M122.92,243.65h19.75a1.71,1.71,0,0,0,1.67-1.53l2.38-27.2a1.39,1.39,0,0,0-1.4-1.53H125.56a1.7,1.7,0,0,0-1.66,1.53l-2.38,27.2A1.38,1.38,0,0,0,122.92,243.65Z" style="fill: rgb(255, 255, 255); opacity: 0.5; transform-origin: 134.119px 228.52px;" class="animable"></path></g><g id="elb8um92dpk27"><path d="M142.1,218.52h1.4a1.34,1.34,0,0,0,1.31-1.2l.12-1.4a1.08,1.08,0,0,0-1.1-1.2h-1.4a1.34,1.34,0,0,0-1.3,1.2l-.13,1.4A1.09,1.09,0,0,0,142.1,218.52Z" style="fill: rgb(38, 50, 56); transform-origin: 142.966px 216.62px;" class="animable"></path></g><g id="ela34vm0hbt3m"><path d="M142.42,218.52h1.41a1.33,1.33,0,0,0,1.3-1.2l.12-1.4a1.08,1.08,0,0,0-1.09-1.2h-1.4a1.34,1.34,0,0,0-1.31,1.2l-.12,1.4A1.08,1.08,0,0,0,142.42,218.52Z" style="fill: rgb(38, 50, 56); transform-origin: 143.29px 216.62px;" class="animable"></path></g><g id="ele0chpajx6n6"><path d="M142.42,218.52h1.41a1.33,1.33,0,0,0,1.3-1.2l.12-1.4a1.08,1.08,0,0,0-1.09-1.2h-1.4a1.34,1.34,0,0,0-1.31,1.2l-.12,1.4A1.08,1.08,0,0,0,142.42,218.52Z" style="fill: rgb(255, 255, 255); opacity: 0.7; transform-origin: 143.29px 216.62px;" class="animable"></path></g><g id="elk7euevnm0p"><path d="M125.89,226h-2.43a2.86,2.86,0,0,0-2.29,1.2l-2.45,3.49a5.27,5.27,0,0,0-.65,4.79l.35,1c4,.25,8.56-2.45,8.56-2.45l1.37-.63a2.35,2.35,0,0,0,1.25-3.1l-1.2-2.74A2.71,2.71,0,0,0,125.89,226Z" style="fill: rgb(38, 50, 56); transform-origin: 123.779px 231.248px;" class="animable"></path></g><g id="elr4acav9wd"><path d="M117.76,229.64l-2.5-.06c-1.84-.07-3.65-.15-5.37-.33a26.67,26.67,0,0,1-3-.43q.41-1.31.84-2.61c.65-1.86,1.32-3.73,2-5.6s1.45-3.73,2.22-5.59l2.28-5.46.08-.18a6.6,6.6,0,0,0-12-5.45c-.54,1.1-1,2-1.43,3.09s-.85,2-1.26,3c-.8,2.06-1.55,4.13-2.21,6.25s-1.27,4.26-1.8,6.44-.95,4.42-1.29,6.69l-.06.39a5.08,5.08,0,0,0,0,.87,8.43,8.43,0,0,0,1.49,4.52,8.65,8.65,0,0,0,2.94,2.63,12.92,12.92,0,0,0,4.65,1.44,28,28,0,0,0,6.9-.12,50.86,50.86,0,0,0,6.09-1.19c1.06-.28,2.1-.57,3.13-.9Z" style="fill: rgb(22, 160, 133); transform-origin: 106.851px 219.898px;" class="animable"></path></g><g id="elbahs7hu6r8p"><path d="M117.76,229.64l-2.5-.06c-1.84-.07-3.65-.15-5.37-.33a26.67,26.67,0,0,1-3-.43q.41-1.31.84-2.61c.65-1.86,1.32-3.73,2-5.6s1.45-3.73,2.22-5.59l2.28-5.46.08-.18a6.6,6.6,0,0,0-12-5.45c-.54,1.1-1,2-1.43,3.09s-.85,2-1.26,3c-.8,2.06-1.55,4.13-2.21,6.25s-1.27,4.26-1.8,6.44-.95,4.42-1.29,6.69l-.06.39a5.08,5.08,0,0,0,0,.87,8.43,8.43,0,0,0,1.49,4.52,8.65,8.65,0,0,0,2.94,2.63,12.92,12.92,0,0,0,4.65,1.44,28,28,0,0,0,6.9-.12,50.86,50.86,0,0,0,6.09-1.19c1.06-.28,2.1-.57,3.13-.9Z" style="fill: rgb(255, 255, 255); opacity: 0.6; transform-origin: 106.851px 219.898px;" class="animable"></path></g><polygon points="150.59 142.15 150.93 141.31 151.43 141.09 172.11 149.42 174.16 151.08 174.11 151.19 171.48 150.98 150.8 142.65 150.59 142.15" style="fill: rgb(22, 160, 133); transform-origin: 162.375px 146.14px;" id="eln9f74j76ehq" class="animable"></polygon><g id="elmeldi5du22b"><polygon points="150.59 142.15 150.93 141.31 151.43 141.09 172.11 149.42 174.16 151.08 174.11 151.19 171.48 150.98 150.8 142.65 150.59 142.15" style="fill: rgb(255, 255, 255); opacity: 0.8; transform-origin: 162.375px 146.14px;" class="animable"></polygon></g></g><defs>     <filter id="active" height="200%">         <feMorphology in="SourceAlpha" result="DILATED" operator="dilate" radius="2"></feMorphology>                <feFlood flood-color="#32DFEC" flood-opacity="1" result="PINK"></feFlood>        <feComposite in="PINK" in2="DILATED" operator="in" result="OUTLINE"></feComposite>        <feMerge>            <feMergeNode in="OUTLINE"></feMergeNode>            <feMergeNode in="SourceGraphic"></feMergeNode>        </feMerge>    </filter>    <filter id="hover" height="200%">        <feMorphology in="SourceAlpha" result="DILATED" operator="dilate" radius="2"></feMorphology>                <feFlood flood-color="#ff0000" flood-opacity="0.5" result="PINK"></feFlood>        <feComposite in="PINK" in2="DILATED" operator="in" result="OUTLINE"></feComposite>        <feMerge>            <feMergeNode in="OUTLINE"></feMergeNode>            <feMergeNode in="SourceGraphic"></feMergeNode>        </feMerge>            <feColorMatrix type="matrix" values="0   0   0   0   0                0   1   0   0   0                0   0   0   0   0                0   0   0   1   0 "></feColorMatrix>    </filter></defs></svg>